HIERARCHY
ROOT root
{
	OFFSET 0.000000 0.000000 0.000000
	CHANNELS 6 Xposition Yposition Zposition Zrotation Yrotation Xrotation
	JOINT lhip
	{
		OFFSET 0.058581 -0.082280 -0.017664
		CHANNELS 3 Zrotation Yrotation Xrotation
		JOINT lknee
		{
			OFFSET 0.043451 -0.386469 0.008037
			CHANNELS 3 Zrotation Yrotation Xrotation
			JOINT lankle
			{
				OFFSET -0.014790 -0.426874 -0.037428
				CHANNELS 3 Zrotation Yrotation Xrotation
				JOINT ltoe
				{
					OFFSET 0.041054 -0.060286 0.122042
					CHANNELS 3 Zrotation Yrotation Xrotation
					End Site
					{
						OFFSET 0.000000 0.000000 0.000000
					}
				}
			}
		}
	}
	JOINT rhip
	{
		OFFSET -0.060310 -0.090513 -0.013543
		CHANNELS 3 Zrotation Yrotation Xrotation
		JOINT rknee
		{
			OFFSET -0.043257 -0.383688 -0.004843
			CHANNELS 3 Zrotation Yrotation Xrotation
			JOINT rankle
			{
				OFFSET 0.019056 -0.420046 -0.034562
				CHANNELS 3 Zrotation Yrotation Xrotation
				JOINT rtoe
				{
					OFFSET -0.034840 -0.062106 0.130323
					CHANNELS 3 Zrotation Yrotation Xrotation
					End Site
					{
						OFFSET 0.000000 0.000000 0.000000
					}
				}
			}
		}
	}
	JOINT lowerback
	{
		OFFSET 0.004439 0.124404 -0.038385
		CHANNELS 3 Zrotation Yrotation Xrotation
		JOINT upperback
		{
			OFFSET 0.004488 0.137956 0.026820
			CHANNELS 3 Zrotation Yrotation Xrotation
			JOINT chest
			{
				OFFSET -0.002265 0.056032 0.002855
				CHANNELS 3 Zrotation Yrotation Xrotation
				JOINT lowerneck
				{
					OFFSET -0.013390 0.211636 -0.033468
					CHANNELS 3 Zrotation Yrotation Xrotation
					JOINT upperneck
					{
						OFFSET 0.010113 0.088937 0.050410
						CHANNELS 3 Zrotation Yrotation Xrotation
						End Site
						{
							OFFSET 0.000000 0.000000 0.000000
						}
					}
				}
				JOINT lclavicle
				{
					OFFSET 0.071702 0.114000 -0.018898
					CHANNELS 3 Zrotation Yrotation Xrotation
					JOINT lshoulder
					{
						OFFSET 0.122921 0.045205 -0.019046
						CHANNELS 3 Zrotation Yrotation Xrotation
						JOINT lelbow
						{
							OFFSET 0.255332 -0.015649 -0.022946
							CHANNELS 3 Zrotation Yrotation Xrotation
							JOINT lwrist
							{
								OFFSET 0.265709 0.012698 -0.007375
								CHANNELS 3 Zrotation Yrotation Xrotation
								End Site
								{
									OFFSET 0.000000 0.000000 0.000000
								}
							}
						}
					}
				}
				JOINT rclavicle
				{
					OFFSET -0.082954 0.112472 -0.023707
					CHANNELS 3 Zrotation Yrotation Xrotation
					JOINT rshoulder
					{
						OFFSET -0.113228 0.046853 -0.008472
						CHANNELS 3 Zrotation Yrotation Xrotation
						JOINT relbow
						{
							OFFSET -0.260127 -0.014369 -0.031269
							CHANNELS 3 Zrotation Yrotation Xrotation
							JOINT rwrist
							{
								OFFSET -0.269108 0.006794 -0.006027
								CHANNELS 3 Zrotation Yrotation Xrotation
								End Site
								{
									OFFSET 0.000000 0.000000 0.000000
								}
							}
						}
					}
				}
			}
		}
	}
}
MOTION
Frames: 12
Frame Time: 0.033333
0.165017 2.712041 0.867939 -98.950690 2.131068 91.195898 10.915159 -13.100074 -40.331244 -11.051226 -10.098619 65.209833 7.857620 19.078916 -27.729343 0.000000 -0.000000 0.000000 0.695278 7.296944 -41.388893 0.804072 -7.324007 57.700619 -3.731451 -17.995330 -27.025931 0.000000 -0.000000 0.000000 -0.808387 -2.879724 39.252776 -4.846914 -1.914980 1.221618 -1.017025 2.483174 3.914341 -12.302493 22.604407 -8.728390 -5.665276 18.707296 -22.748741 1.046301 -2.574020 -0.496400 -28.565253 -11.842208 -11.649943 123.772629 -50.110907 -84.588077 19.960561 -2.087386 1.887634 0.120099 12.498550 7.732923 35.571563 30.427952 -15.437198 -136.989844 46.825588 -104.388344 -26.490543 1.675644 -12.557355 
0.167317 2.712846 0.865009 -98.547706 2.461077 91.226044 11.188451 -13.450461 -41.036370 -10.887280 -10.267910 66.006025 7.985346 19.304988 -27.509787 0.000000 -0.000000 0.000000 0.874956 7.622636 -41.873261 0.603230 -7.624754 58.166845 -3.895027 -18.248597 -26.973890 0.000000 -0.000000 0.000000 -0.595585 -3.019471 39.747298 -4.782336 -1.833189 1.065297 -0.936609 2.489347 3.868190 -12.275486 22.516925 -8.597137 -5.620683 18.611983 -23.147639 1.264761 -2.624467 -0.559220 -28.929466 -12.018592 -11.769338 123.914723 -49.799353 -84.448992 19.879800 -2.076689 1.843366 -0.143471 12.721836 7.671938 35.583239 30.655698 -15.512980 -136.756668 46.749655 -103.898416 -26.417307 1.710234 -12.599885 
0.169516 2.713166 0.862303 -98.245776 2.815694 91.181225 11.397608 -13.673095 -41.727166 -10.543543 -10.178491 66.832111 8.085824 19.584341 -26.993063 0.000000 -0.000000 0.000000 1.036428 7.898639 -42.246851 0.473865 -7.926108 58.580691 -4.009131 -18.328177 -26.904920 0.000000 -0.000000 0.000000 -0.337221 -3.166925 40.244242 -4.769050 -1.771714 0.956135 -0.894574 2.512632 3.869352 -12.298014 22.491136 -8.324823 -5.657098 18.482678 -23.648172 1.599353 -2.666100 -0.623022 -29.314445 -12.148022 -11.830813 123.915543 -49.692111 -84.185467 19.885366 -2.099274 1.752940 -0.461902 12.965784 7.594022 35.586579 30.900283 -15.594388 -136.583268 46.706175 -103.540977 -26.396431 1.736784 -12.646583 
0.171414 2.712857 0.860139 -98.013690 3.177194 91.013062 11.526599 -13.791901 -42.302934 -10.151414 -9.878758 67.646722 8.125916 19.842581 -26.360999 0.000000 -0.000000 0.000000 1.152906 8.036704 -42.398044 0.457824 -8.263784 58.870422 -4.034128 -18.256793 -26.828566 0.000000 -0.000000 0.000000 -0.043900 -3.345984 40.722709 -4.778038 -1.761582 0.957950 -0.885525 2.567997 3.864859 -12.362170 22.522991 -7.913528 -5.792240 18.380654 -24.174621 1.916108 -2.617245 -0.717176 -29.603422 -12.162649 -11.801044 123.884030 -49.849757 -84.009408 19.958614 -2.125360 1.616425 -0.748222 13.200159 7.513953 35.445521 31.126633 -15.674429 -136.441336 46.792824 -103.388437 -26.427002 1.779511 -12.609969 
0.172885 2.711873 0.858751 -97.801653 3.534352 90.736961 11.620985 -13.751541 -42.783076 -9.942449 -9.437903 68.454415 8.125373 19.908685 -25.775611 0.000000 -0.000000 0.000000 1.219260 7.979409 -42.285899 0.576323 -8.637959 58.953835 -4.029961 -18.116370 -26.787689 0.000000 -0.000000 0.000000 0.263690 -3.523151 41.105224 -4.747174 -1.789989 1.053837 -0.862387 2.655299 3.872164 -12.390798 22.554726 -7.413142 -5.989008 18.323342 -24.575841 2.111322 -2.502453 -0.823830 -29.781184 -12.070642 -11.695962 123.935562 -50.205551 -84.046700 20.064955 -2.144509 1.468254 -0.935408 13.370506 7.429003 35.060220 31.263103 -15.797583 -136.343221 47.044470 -103.476119 -26.456331 1.835716 -12.493083 
0.173975 2.710138 0.858431 -97.594808 3.855845 90.444592 11.764695 -13.473236 -43.359809 -10.012268 -8.773658 69.294153 8.121376 19.565477 -25.038473 0.000000 -0.000000 0.000000 1.251507 7.795561 -41.955953 0.726372 -8.952292 58.746728 -4.070455 -17.942384 -26.740508 0.000000 -0.000000 0.000000 0.570006 -3.633644 41.363347 -4.644206 -1.814619 1.141397 -0.782018 2.751599 3.860848 -12.306859 22.539634 -6.885686 -6.185570 18.246088 -24.774754 2.123186 -2.383939 -0.932702 -29.907878 -11.957564 -11.498738 124.062425 -50.615230 -84.242232 20.118422 -2.141443 1.347851 -1.012123 13.434736 7.362299 34.518281 31.274620 -15.952623 -136.321909 47.336620 -103.761873 -26.386923 1.921992 -12.297266 
0.174789 2.707535 0.859575 -97.389261 4.092358 90.170012 12.015345 -12.968139 -44.090486 -10.424048 -7.873939 70.136913 8.087954 18.658941 -23.948923 0.000000 -0.000000 0.000000 1.238767 7.533973 -41.401049 0.825050 -9.128552 58.173098 -4.155633 -17.699156 -26.577771 0.000000 -0.000000 0.000000 0.864045 -3.645835 41.541257 -4.499387 -1.827199 1.218250 -0.653542 2.816665 3.779039 -12.085523 22.449475 -6.365245 -6.387889 18.078929 -24.889604 1.952072 -2.354456 -1.010717 -29.981284 -11.859744 -11.265499 124.177010 -50.913149 -84.448322 20.174245 -2.133309 1.247853 -0.990254 13.474674 7.353340 33.967110 31.196706 -16.128161 -136.348903 47.510972 -104.094041 -26.310426 1.999388 -12.074253 
0.175351 2.703904 0.862389 -97.207447 4.228416 89.816456 12.316478 -12.252401 -44.647310 -11.219267 -7.015050 70.782158 7.940756 17.228531 -22.822363 0.000000 -0.000000 0.000000 1.172406 7.119488 -40.490195 0.913650 -9.152834 57.175299 -4.277633 -17.316385 -26.232243 0.000000 -0.000000 0.000000 1.174908 -3.366115 41.561775 -4.204125 -1.679551 1.918310 -0.476077 2.621984 3.351012 -11.656367 22.296758 -6.012040 -6.791910 17.716776 -24.809920 1.743741 -2.419159 -1.015586 -30.271138 -12.042663 -10.976776 124.178229 -50.966798 -84.514256 20.126734 -2.155726 1.296013 -1.013306 13.404394 7.298254 33.454480 31.137282 -16.192157 -136.193055 47.464953 -104.187545 -26.257545 2.030493 -11.951101 
0.175412 2.699108 0.866477 -97.105529 4.333336 89.392032 12.646251 -11.301072 -44.733260 -12.089495 -6.353173 70.929602 7.728764 15.818598 -22.022489 0.000000 -0.000000 0.000000 1.098208 6.532224 -39.223714 1.082961 -9.039986 55.699163 -4.413042 -16.756221 -25.694205 0.000000 -0.000000 0.000000 1.522435 -2.644688 41.260349 -3.585082 -1.230496 3.663715 -0.225731 2.015170 2.412014 -11.005840 22.155169 -5.999127 -7.547224 17.117468 -24.301130 1.683003 -2.489026 -0.961956 -31.102701 -12.682923 -10.540465 124.018467 -50.823666 -84.333614 19.961582 -2.274908 1.632870 -1.196451 13.081627 7.071567 32.975714 31.183971 -15.974055 -135.683480 47.258101 -103.920378 -26.179696 2.043583 -11.921360 
0.174806 2.693231 0.871679 -97.143262 4.406652 88.993084 12.980452 -10.111866 -44.267495 -12.464230 -5.852090 70.484593 7.482065 14.924895 -21.576861 0.000000 -0.000000 0.000000 1.001216 5.845008 -37.734189 1.325402 -8.750118 53.779601 -4.445172 -16.047862 -24.987287 0.000000 -0.000000 0.000000 1.802266 -1.683665 40.686297 -2.731163 -0.639034 5.913235 0.048397 1.226850 1.195129 -10.224367 22.202889 -6.253990 -8.483764 16.424405 -23.418877 1.734296 -2.406587 -0.930080 -32.310942 -13.498160 -9.924258 123.798065 -50.695854 -84.070869 19.720517 -2.465386 2.089131 -1.413399 12.568959 6.763776 32.570852 31.371629 -15.477367 -135.011306 47.059894 -103.542661 -26.080272 2.075962 -11.894782 
0.173488 2.686321 0.877980 -97.311957 4.386256 88.733774 13.402945 -8.892629 -43.356750 -12.321740 -5.557768 69.580304 7.248143 14.455629 -21.234626 0.000000 -0.000000 0.000000 0.796534 5.155436 -36.201086 1.587971 -8.279076 51.547221 -4.224026 -15.278814 -24.218743 0.000000 -0.000000 0.000000 1.906612 -0.917492 40.006969 -2.081992 -0.255143 7.446011 0.252669 0.735468 0.449739 -9.579058 22.411714 -6.496523 -9.148902 15.890284 -22.677153 1.695578 -2.322943 -0.881634 -33.162289 -13.868685 -9.440315 123.627019 -50.755421 -83.922086 19.594938 -2.619235 2.299534 -1.370469 12.274641 6.582838 32.228645 31.487142 -15.148512 -134.667768 47.045392 -103.530096 -26.008789 2.120653 -11.791580 
0.171526 2.678295 0.885259 -97.581000 4.218983 88.627532 13.981548 -7.841373 -42.048817 -12.066428 -5.653361 68.312735 6.997579 14.091937 -20.859995 0.000000 -0.000000 0.000000 0.403995 4.473835 -34.710193 1.836363 -7.666523 49.163122 -3.788619 -14.495296 -23.457468 0.000000 -0.000000 0.000000 1.826297 -0.392196 39.140937 -1.751480 -0.097815 8.218125 0.342584 0.555032 0.315721 -9.136167 22.658154 -6.662893 -9.448135 15.515139 -22.196157 1.580629 -2.290406 -0.788177 -33.481422 -13.776185 -9.216118 123.521790 -50.954149 -83.892329 19.642204 -2.735679 2.280092 -1.094876 12.217353 6.543064 31.942459 31.490320 -15.098792 -134.753308 47.149880 -103.910796 -25.965746 2.165625 -11.649756 
